<svg width="21" height="13" viewBox="0 0 21 13" fill="none" xmlns="http://www.w3.org/2000/svg">
                  <path fill-rule="evenodd" clip-rule="evenodd" d="M20.1881 1.31257C20.3285 0.844571 20.1881 0.5 19.5154 0.5H17.2943C16.729 0.5 16.4684 0.797429 16.3271 1.12571C16.3271 1.12571 15.1975 3.86514 13.5975 5.64457C13.0797 6.16057 12.8444 6.32429 12.5618 6.32429C12.4205 6.32429 12.2081 6.16057 12.2081 5.69171V1.31257C12.2081 0.750286 12.0525 0.5 11.582 0.5H8.08915C7.73631 0.5 7.52393 0.760571 7.52393 1.00829C7.52393 1.54057 8.32438 1.664 8.40645 3.16229V6.41771C8.40645 7.13171 8.27699 7.26114 7.99438 7.26114C7.24132 7.26114 5.40944 4.50886 4.32215 1.35971C4.11147 0.746857 3.89824 0.5 3.33048 0.5H1.10768C0.473081 0.5 0.346161 0.797429 0.346161 1.12571C0.346161 1.71029 1.09922 4.61429 3.85339 8.45514C5.68951 11.078 8.27446 12.5 10.6293 12.5C12.0415 12.5 12.2158 12.1846 12.2158 11.6403V9.65771C12.2158 9.026 12.3494 8.9 12.7971 8.9C13.127 8.9 13.6914 9.06457 15.0097 10.3289C16.5158 11.828 16.7637 12.5 17.6116 12.5H19.8327C20.4673 12.5 20.7854 12.1846 20.6027 11.5606C20.4013 10.94 19.6821 10.0391 18.7285 8.97029C18.2106 8.36171 17.4339 7.706 17.1978 7.37771C16.8687 6.95686 16.9626 6.76914 17.1978 6.39457C17.1978 6.39457 19.9054 2.60086 20.1872 1.31257H20.1881Z" fill="white"></path>
                </svg>