<svg id="myclose-modal" xmlns="http://www.w3.org/2000/svg" viewBox="0 0 454.59 454.68">
        <path d="m182.84,226.99c-2.65-1.95-4.45-2.95-5.85-4.35C121.69,167.4,66.47,112.08,11.13,56.89,1.55,47.34-2.27,36.3,1.37,23.25,7.65.76,35.69-7.5,53.29,7.83c4.01,3.5,7.65,7.42,11.43,11.19,52.68,52.67,105.36,105.34,158,158.05,1.39,1.39,2.29,3.28,3.41,4.93.82.09,1.64.18,2.45.27,1.05-1.7,1.82-3.69,3.2-5.07,55.22-55.32,110.54-110.53,165.72-165.89,9.54-9.57,20.5-13.55,33.58-9.98,22.59,6.16,31,33.96,15.85,51.8-1.61,1.9-3.42,3.64-5.19,5.41-54.67,54.68-109.35,109.37-164.04,164.03-1.41,1.41-3.04,2.59-4.97,4.21,1.89,1.99,3.19,3.43,4.56,4.8,55.26,55.27,110.48,110.59,165.84,165.76,9.7,9.67,13.76,20.77,10.04,34.03-6.37,22.72-34.69,30.76-52.31,15.04-1.74-1.55-3.37-3.22-5.02-4.87-54.68-54.67-109.36-109.35-164.02-164.05-1.39-1.39-2.44-3.11-3.65-4.68-.71-.13-1.41-.25-2.12-.38-1.08,1.69-1.9,3.64-3.28,5.03-55.22,55.31-110.49,110.58-165.78,165.83-11.48,11.47-25.04,14.37-38.24,8.3-19.56-8.99-24.98-34.37-10.77-50.51,1.54-1.75,3.22-3.38,4.87-5.03,54.67-54.68,109.35-109.36,164.05-164.02,1.41-1.41,3.03-2.59,5.93-5.03Z"></path>
      </svg>