<svg width="307" height="141" viewBox="0 0 307 141" fill="none" xmlns="http://www.w3.org/2000/svg">
<path d="M68.5156 82.0117H70.2734C69.4531 83.2617 68.6328 84.4922 67.8125 85.7031C66.9922 86.9141 65.8594 88.4375 64.4141 90.2734C62.9688 92.1094 61.6016 93.7109 60.3125 95.0781C59.0625 96.4062 57.7148 97.5586 56.2695 98.5352C54.8242 99.5117 53.5742 100 52.5195 100C52.1289 100 51.7383 99.9609 51.3477 99.8828C50.957 99.7656 50.4883 99.5508 49.9414 99.2383C49.4336 98.9258 48.9844 98.5156 48.5938 98.0078C48.2422 97.5 47.9297 96.7773 47.6562 95.8398C47.3828 94.9023 47.2461 93.8086 47.2461 92.5586C47.2461 91.2695 47.7539 89.6484 48.7695 87.6953C49.8242 85.7422 51.0938 83.7891 52.5781 81.8359C54.0625 79.8438 55.5469 77.9297 57.0312 76.0938C58.5156 74.2188 59.7656 72.5 60.7812 70.9375C61.8359 69.375 62.3633 68.2422 62.3633 67.5391C62.3633 66.7188 62.0703 66.3086 61.4844 66.3086C60.2734 66.3086 58.6914 67.0508 56.7383 68.5352C54.8242 69.9805 52.9297 71.7383 51.0547 73.8086C49.1797 75.8789 47.3828 77.9688 45.6641 80.0781C43.9453 82.1484 42.5586 83.9062 41.5039 85.3516L39.9219 87.5781L32.7734 99.707H25.918L31.3086 91.4453L36.1719 82.1289L46.8945 64.7266H53.6328C53.4766 65 53.0664 65.6445 52.4023 66.6602C51.7773 67.6758 51.0547 68.8281 50.2344 70.1172C49.4531 71.4062 48.9062 72.3047 48.5938 72.8125C47.0703 75.2734 45.8594 77.1875 44.9609 78.5547C51.9531 69.1406 57.7539 64.4336 62.3633 64.4336C63.6133 64.4336 64.6484 64.8242 65.4688 65.6055C66.3281 66.3867 66.7578 67.6367 66.7578 69.3555C66.7578 70.8008 66.2109 72.5586 65.1172 74.6289C64.0625 76.6992 62.7734 78.7695 61.25 80.8398C59.7656 82.9102 58.2617 84.9414 56.7383 86.9336C55.2148 88.9258 53.9258 90.8008 52.8711 92.5586C51.8164 94.2773 51.2891 95.625 51.2891 96.6016C51.2891 97.8516 51.6992 98.4766 52.5195 98.4766C53.3398 98.4766 54.3359 98.0664 55.5078 97.2461C56.6797 96.3867 57.832 95.3711 58.9648 94.1992C60.1367 92.9883 61.3672 91.582 62.6562 89.9805C63.9453 88.3789 65.0391 86.9727 65.9375 85.7617C66.8359 84.5117 67.6953 83.2617 68.5156 82.0117ZM101.328 71.4648L102.324 72.8125C100.41 74.4531 98.7891 75.6836 97.4609 76.5039C96.1719 77.2852 95.0195 77.832 94.0039 78.1445C93.5352 78.2617 93.1836 78.3594 92.9492 78.4375C92.7148 78.5156 92.3828 78.5742 91.9531 78.6133C91.7578 78.6523 91.582 78.6719 91.4258 78.6719C91.3086 78.6719 91.2109 78.6719 91.1328 78.6719H89.668H89.4922C89.1406 79.5312 88.75 80.3906 88.3203 81.25C87.8906 82.1094 87.4219 82.9883 86.9141 83.8867C84.1797 88.7695 81.1523 92.6953 77.832 95.6641C74.5898 98.5547 71.8359 100 69.5703 100C67.8125 100 66.5039 99.1992 65.6445 97.5977C64.7461 95.9961 64.2969 94.0039 64.2969 91.6211C64.2969 90.5273 64.4531 89.3555 64.7656 88.1055C65.0781 86.8555 65.5273 85.6055 66.1133 84.3555C66.6992 83.0664 67.3828 81.7969 68.1641 80.5469C68.9844 79.2969 69.8633 78.1055 70.8008 76.9727C72.168 75.2539 73.6719 73.6328 75.3125 72.1094C76.9531 70.5859 78.5938 69.2578 80.2344 68.125C81.875 66.9531 83.4375 66.0352 84.9219 65.3711C86.4062 64.707 87.6953 64.3945 88.7891 64.4336C89.5312 64.4336 90.1367 64.7461 90.6055 65.3711C91.1133 65.957 91.4453 66.7969 91.6016 67.8906C91.7578 68.9844 91.7188 70.3125 91.4844 71.875C91.25 73.4375 90.7812 75.1758 90.0781 77.0898C93.0469 76.9727 96.7969 75.0977 101.328 71.4648ZM85.2734 83.3008C85.8203 82.3242 86.2891 81.4258 86.6797 80.6055C87.1094 79.7461 87.4805 78.9648 87.793 78.2617C86.8164 77.793 86.1523 77.0508 85.8008 76.0352C85.4492 74.9805 85.332 73.9648 85.4492 72.9883C85.5664 71.8555 86.1328 70.6836 87.1484 69.4727C88.1641 68.3008 89.1797 67.6172 90.1953 67.4219C89.8828 66.25 89.4141 65.6641 88.7891 65.6641C86.9922 65.6641 84.8828 66.9336 82.4609 69.4727C80.0391 72.0117 77.8711 75 75.957 78.4375C74.9805 80.1562 74.0625 81.8945 73.2031 83.6523C72.3828 85.3711 71.6406 87.1289 70.9766 88.9258C69.6094 92.5586 68.9258 95.332 68.9258 97.2461C68.9258 98.0664 69.1406 98.4766 69.5703 98.4766C71.4062 98.4766 73.8867 97.0117 77.0117 94.082C80.1367 91.1133 82.8906 87.5195 85.2734 83.3008ZM101.855 104.863C106.699 105.059 109.824 106.738 111.23 109.902L110.234 110.488C109.492 109.121 108.438 108.047 107.07 107.266C105.703 106.523 103.73 106.113 101.152 106.035L90.5469 123.672C89.0625 125.977 87.5586 127.969 86.0352 129.648C84.5117 131.367 83.1836 132.637 82.0508 133.457C80.918 134.316 79.8047 134.98 78.7109 135.449C77.5781 135.957 76.7383 136.25 76.1914 136.328C75.6445 136.445 75.1562 136.504 74.7266 136.504C72.8516 136.504 71.9141 135.312 71.9141 132.93C71.9141 130.703 72.6367 128.203 74.082 125.43C75.5273 122.695 77.3633 120.098 79.5898 117.637C81.8164 115.176 84.3164 112.891 87.0898 110.781C89.8242 108.711 92.4609 107.148 95 106.094L102.617 93.7891C98.8281 97.9297 96.1914 100 94.707 100C92.9492 100 91.6406 99.1992 90.7812 97.5977C89.8828 95.9961 89.4336 94.0039 89.4336 91.6211C89.4336 89.7461 89.8828 87.7344 90.7812 85.5859C91.6406 83.3984 92.793 81.3281 94.2383 79.375C95.6836 77.3828 97.3047 75.4688 99.1016 73.6328C100.938 71.7969 102.754 70.2148 104.551 68.8867C106.387 67.5195 108.164 66.4453 109.883 65.6641C111.641 64.8438 113.125 64.4336 114.336 64.4336C116.094 64.4336 116.816 65.9961 116.504 69.1211L118.965 64.7266H125.996L101.855 104.863ZM94.707 98.418C95.7227 98.418 97.3242 97.3242 99.5117 95.1367C101.699 92.9102 103.848 90.4492 105.957 87.7539L106.836 86.1719L114.688 72.4023C114.844 71.6211 114.98 70.8594 115.098 70.1172C115.215 69.3359 115.293 68.5938 115.332 67.8906C115.371 67.1875 115.293 66.6406 115.098 66.25C114.941 65.8203 114.688 65.6055 114.336 65.6055C112.5 65.6055 110.371 66.875 107.949 69.4141C105.527 71.9531 103.32 74.9414 101.328 78.3789C99.3359 81.8164 97.6367 85.3125 96.2305 88.8672C94.8242 92.4219 94.1211 95.1953 94.1211 97.1875C94.1211 98.0078 94.3164 98.418 94.707 98.418ZM74.375 135.039C75.2734 135.039 76.4453 134.277 77.8906 132.754C79.3359 131.27 80.7812 129.434 82.2266 127.246C83.6328 125.098 85 122.949 86.3281 120.801C87.6172 118.652 88.6719 116.836 89.4922 115.352L90.7227 113.066L93.8281 107.969C90.7031 109.531 87.5586 111.855 84.3945 114.941C81.1914 118.027 78.5742 121.27 76.543 124.668C74.4727 128.066 73.4375 130.977 73.4375 133.398C73.4375 134.414 73.75 134.961 74.375 135.039ZM170.762 75.3906C170.215 75.3906 169.766 75.2148 169.414 74.8633C169.062 74.4727 168.887 73.8477 168.887 72.9883C168.887 72.0898 169.16 71.1719 169.707 70.2344C170.293 69.2578 170.859 68.457 171.406 67.832C171.992 67.168 172.285 66.7773 172.285 66.6602C172.285 66.3086 172.148 65.957 171.875 65.6055C171.602 65.2539 171.23 65.0781 170.762 65.0781C170.02 65.0781 169.219 65.3906 168.359 66.0156C167.5 66.6406 166.621 67.4414 165.723 68.418C164.824 69.3555 163.398 70.7812 161.445 72.6953C159.492 74.5703 157.402 76.4258 155.176 78.2617C158.457 78.4961 160.098 80.1953 160.098 83.3594C160.098 84.2969 159.648 85.7617 158.75 87.7539C157.852 89.707 156.953 91.582 156.055 93.3789C155.156 95.1758 154.707 96.3477 154.707 96.8945C154.707 97.9492 155.137 98.4766 155.996 98.4766C157.012 98.4766 158.262 97.8906 159.746 96.7188C161.27 95.5469 162.832 94.0039 164.434 92.0898C166.035 90.1758 167.441 88.418 168.652 86.8164C169.863 85.2148 170.996 83.6133 172.051 82.0117H173.809C173.066 83.1836 172.227 84.4141 171.289 85.7031C170.391 86.9922 169.219 88.5352 167.773 90.332C166.367 92.1289 165 93.7109 163.672 95.0781C162.383 96.4062 161.016 97.5586 159.57 98.5352C158.125 99.5117 156.875 100 155.82 100C155.469 100 155.078 99.9609 154.648 99.8828C154.219 99.8047 153.73 99.6484 153.184 99.4141C152.637 99.1406 152.148 98.8086 151.719 98.418C151.328 97.9883 150.977 97.4023 150.664 96.6602C150.391 95.918 150.254 95.0781 150.254 94.1406C150.254 93.1641 150.762 91.6797 151.777 89.6875C152.832 87.6953 153.867 85.8398 154.883 84.1211C155.898 82.3633 156.406 81.3086 156.406 80.957C156.406 80.5273 156.25 80.1758 155.938 79.9023C155.625 79.6289 155.293 79.4922 154.941 79.4922C153.301 79.4922 151.602 80.1367 149.844 81.4258L138.359 99.707H131.504L153.359 64.5508H161.035L151.309 79.1406C152.012 78.7891 152.695 78.5352 153.359 78.3789C154.102 77.6367 155.117 76.543 156.406 75.0977C157.695 73.6133 158.887 72.2852 159.98 71.1133C161.074 69.9414 162.246 68.7695 163.496 67.5977C164.746 66.3867 165.996 65.4492 167.246 64.7852C168.496 64.082 169.668 63.7305 170.762 63.7305C171.23 63.7305 171.68 63.8086 172.109 63.9648C172.539 64.1211 172.988 64.3945 173.457 64.7852C173.926 65.1367 174.297 65.7031 174.57 66.4844C174.883 67.2656 175.039 68.2031 175.039 69.2969C175.039 70.5078 174.609 71.8359 173.75 73.2812C172.891 74.6875 171.895 75.3906 170.762 75.3906ZM208.965 82.0117C207.832 83.5742 206.738 85.0781 205.684 86.5234C204.629 87.9297 203.594 89.2578 202.578 90.5078C201.602 91.7188 200.586 92.8906 199.531 94.0234C198.477 95.1562 197.461 96.1719 196.484 97.0703C195.508 97.9297 194.59 98.6328 193.73 99.1797C192.91 99.7266 192.246 100 191.738 100C191.113 100 190.508 99.8242 189.922 99.4727C189.336 99.082 188.809 98.5352 188.34 97.832C187.871 97.1289 187.5 96.2695 187.227 95.2539C186.953 94.1992 186.816 92.9883 186.816 91.6211C186.816 90.7227 187.031 89.6289 187.461 88.3398C187.93 87.0117 188.535 85.5859 189.277 84.0625C190.02 82.5 190.859 80.8984 191.797 79.2578C192.734 77.6172 193.672 76.0352 194.609 74.5117C195.586 72.9883 196.504 71.5625 197.363 70.2344C198.223 68.9062 198.965 67.793 199.59 66.8945L199.707 66.7188C198.301 67.1094 196.992 67.7539 195.781 68.6523C194.609 69.5117 193.496 70.5664 192.441 71.8164C191.387 73.0664 190.391 74.4531 189.453 75.9766C188.516 77.5 187.617 79.082 186.758 80.7227C185.508 83.1836 184.277 85.5664 183.066 87.8711C181.895 90.1367 180.684 92.1875 179.434 94.0234C178.379 95.7031 177.168 97.1484 175.801 98.3594C174.434 99.5703 172.852 100.215 171.055 100.293C169.492 100.098 168.379 99.5898 167.715 98.7695C167.051 97.9492 166.66 97.0312 166.543 96.0156C166.348 95.2734 166.348 94.4727 166.543 93.6133C166.699 92.7539 166.973 91.9336 167.363 91.1523C167.754 90.3711 168.242 89.668 168.828 89.043C169.414 88.418 170.02 87.9883 170.645 87.7539C171.777 87.4414 172.793 87.4609 173.691 87.8125C174.59 88.1641 175.137 88.8086 175.332 89.7461C175.488 90.6836 175.371 91.6406 174.98 92.6172C174.59 93.5547 174.121 94.4336 173.574 95.2539C173.066 96.0742 172.578 96.8164 172.109 97.4805C171.641 98.1055 171.426 98.5742 171.465 98.8867C171.387 99.082 171.406 99.1211 171.523 99.0039C171.68 98.8477 171.953 98.8086 172.344 98.8867C173.242 98.5742 174.121 98.0664 174.98 97.3633C175.879 96.6211 176.758 95.5859 177.617 94.2578C178.867 92.3047 180.059 90.2148 181.191 87.9883C182.324 85.7227 183.516 83.4766 184.766 81.25C185.898 79.1797 187.031 77.207 188.164 75.332C189.336 73.418 190.566 71.7383 191.855 70.293C193.145 68.8086 194.531 67.5977 196.016 66.6602C197.5 65.6836 199.16 65.0781 200.996 64.8438L201.055 64.7266H208.496C208.379 64.8828 207.988 65.4492 207.324 66.4258C206.66 67.3633 205.801 68.6133 204.746 70.1758C203.73 71.7383 202.559 73.5742 201.23 75.6836C199.941 77.7539 198.594 80 197.188 82.4219C196.445 83.6719 195.703 85 194.961 86.4062C194.258 87.8125 193.613 89.1797 193.027 90.5078C192.48 91.7969 192.031 92.9883 191.68 94.082C191.328 95.1367 191.152 95.9766 191.152 96.6016C191.152 97.6172 191.562 98.125 192.383 98.125C192.852 98.125 193.574 97.6953 194.551 96.8359C195.566 95.9766 196.738 94.8242 198.066 93.3789C199.395 91.8945 200.84 90.1758 202.402 88.2227C203.965 86.2695 205.566 84.1992 207.207 82.0117H208.965ZM253.789 71.4648L254.785 72.8125C252.871 74.4531 251.25 75.6836 249.922 76.5039C248.633 77.2852 247.48 77.832 246.465 78.1445C245.996 78.2617 245.645 78.3594 245.41 78.4375C245.176 78.5156 244.844 78.5742 244.414 78.6133C244.219 78.6523 244.043 78.6719 243.887 78.6719C243.77 78.6719 243.672 78.6719 243.594 78.6719H241.953C241.602 79.5312 241.211 80.3906 240.781 81.25C240.352 82.1094 239.883 82.9883 239.375 83.8867C236.641 88.7695 233.613 92.6953 230.293 95.6641C227.051 98.5547 224.297 100 222.031 100C220.273 100 218.945 99.1992 218.047 97.5977C217.188 95.9961 216.758 94.0039 216.758 91.6211C216.758 89.9805 217.07 88.2422 217.695 86.4062C218.359 84.5312 219.258 82.6758 220.391 80.8398H215.41L204.629 100H197.48L217.402 64.7266H224.492L216.23 79.3164H221.445C221.758 78.9258 222.051 78.5352 222.324 78.1445C222.637 77.7539 222.949 77.3633 223.262 76.9727C224.629 75.2539 226.133 73.6328 227.773 72.1094C229.414 70.5859 231.055 69.2578 232.695 68.125C234.336 66.9531 235.898 66.0352 237.383 65.3711C238.867 64.707 240.156 64.3945 241.25 64.4336C241.992 64.4336 242.598 64.7461 243.066 65.3711C243.574 65.957 243.906 66.7969 244.062 67.8906C244.219 68.9844 244.18 70.3125 243.945 71.875C243.711 73.4375 243.242 75.1758 242.539 77.0898C245.508 76.9727 249.258 75.0977 253.789 71.4648ZM237.734 83.3008C238.281 82.3242 238.75 81.4258 239.141 80.6055C239.57 79.7461 239.941 78.9648 240.254 78.2617C239.277 77.793 238.613 77.0508 238.262 76.0352C237.91 74.9805 237.793 73.9648 237.91 72.9883C238.027 71.8555 238.594 70.6836 239.609 69.4727C240.625 68.3008 241.641 67.6172 242.656 67.4219C242.344 66.25 241.875 65.6641 241.25 65.6641C239.453 65.6641 237.344 66.9336 234.922 69.4727C232.5 72.0117 230.332 75 228.418 78.4375C227.441 80.1562 226.523 81.8945 225.664 83.6523C224.844 85.3711 224.102 87.1289 223.438 88.9258C222.07 92.5586 221.387 95.332 221.387 97.2461C221.387 98.0664 221.602 98.4766 222.031 98.4766C223.867 98.4766 226.348 97.0117 229.473 94.082C232.598 91.1133 235.352 87.5195 237.734 83.3008ZM268.965 82.0117H270.781C268.75 84.7852 266.973 87.1484 265.449 89.1016C263.926 91.0547 262.637 92.5977 261.582 93.7305C257.754 97.9102 254.648 100 252.266 100C250.547 100 249.004 99.2578 247.637 97.7734C246.27 96.2891 245.586 94.082 245.586 91.1523C245.586 89.6289 245.938 88.0469 246.641 86.4062C247.344 84.7266 248.281 83.0664 249.453 81.4258C250.625 79.7461 251.953 78.125 253.438 76.5625C254.961 74.9609 256.504 73.4961 258.066 72.168C259.668 70.8008 261.25 69.6094 262.812 68.5938C264.375 67.5391 265.781 66.7188 267.031 66.1328L256.66 66.1914C255.41 68.1836 253.906 70.4883 252.148 73.1055C250.43 75.7227 248.398 78.6914 246.055 82.0117H244.297C248.516 76.0352 252.324 70.293 255.723 64.7852C255.84 64.2773 255.957 63.7109 256.074 63.0859C256.23 62.4609 256.504 61.6406 256.895 60.625C257.168 59.9219 257.48 59.2188 257.832 58.5156C258.184 57.8125 258.594 57.207 259.062 56.6992C259.57 56.1523 260.117 55.7227 260.703 55.4102C261.328 55.0586 262.012 54.8828 262.754 54.8828C263.691 54.8828 264.16 55.4102 264.16 56.4648C264.16 58.2227 261.973 60.9766 257.598 64.7266L257.539 64.7852L269.258 64.7266L269.141 66.0742C268.359 66.1133 266.914 67.3047 264.805 69.6484C262.734 71.9531 260.684 74.6484 258.652 77.7344C257.637 79.2578 256.66 80.8203 255.723 82.4219C254.785 84.0234 253.926 85.6836 253.145 87.4023C251.582 90.8398 250.801 93.5547 250.801 95.5469C250.801 97.5391 251.465 98.5352 252.793 98.5352C253.613 98.5352 254.551 98.1836 255.605 97.4805C256.699 96.7383 258.066 95.4102 259.707 93.4961C260.566 92.5195 261.289 91.6797 261.875 90.9766C262.461 90.2734 262.949 89.6875 263.34 89.2188C263.73 88.75 264.277 88.0664 264.98 87.168C265.723 86.2695 266.602 85.1367 267.617 83.7695C267.93 83.3789 268.184 83.0469 268.379 82.7734C268.613 82.4609 268.809 82.207 268.965 82.0117Z" fill="#FDDEB6"/>
<path d="M183.295 33.4664C141.614 35.2351 104.039 40.1738 66.6883 51.5299C52.0201 55.9896 38.1745 59.0869 27.0001 65.0002C18.5308 69.482 8.23791 76.5576 5.83856 81.8894C-9.6848 116.385 94.4466 124.49 161.851 118.272C204.344 114.352 237.626 106.198 270.308 92.3348C295.971 81.4487 310.025 65.1501 297.768 53.7121C291.573 47.9319 281.015 43.7411 267.238 40.9821C250.015 37.5331 234.046 33.6202 212.957 33.2299C173.473 32.4991 138.94 34.5063 105.706 48.6594" stroke="#FDDEB6" stroke-linecap="round"/>
</svg>
