<?xml version="1.0" encoding="utf-8"?>
<!-- Generator: Adobe Illustrator 24.1.0, SVG Export Plug-In . SVG Version: 6.00 Build 0)  -->
<svg version="1.1" id="Слой_1" xmlns="http://www.w3.org/2000/svg" xmlns:xlink="http://www.w3.org/1999/xlink" x="0px" y="0px"
	 viewBox="0 0 30 26.4" style="enable-background:new 0 0 30 26.4;" xml:space="preserve">
<style type="text/css">
	.st0{fill-rule:evenodd;clip-rule:evenodd;fill:#FFFFFF;}
</style>
<path id="Forma_1" class="st0" d="M21.5,23.7c-0.2,0-0.4-0.1-0.5-0.2l-6-4.2l-3.2,2.4c-0.3,0.2-0.6,0.2-0.9,0.1
	c-0.3-0.1-0.5-0.4-0.6-0.7l-1.6-6.3l-5.8-2.3c-0.4-0.2-0.6-0.5-0.6-0.9c0-0.4,0.2-0.8,0.6-0.9l22.1-9c0.1,0,0.2-0.1,0.3-0.1h0.1
	c0.2,0,0.4,0.1,0.6,0.3c0,0,0,0,0,0c0.1,0.2,0.2,0.4,0.2,0.6c0,0.1,0,0.1,0,0.2c0,0,0,0.1,0,0.1l-3.7,20c-0.1,0.3-0.3,0.6-0.6,0.7
	C21.7,23.6,21.6,23.7,21.5,23.7z M15.4,17.3l5.4,3.7l2.9-15.6L13.2,15.8L15.4,17.3C15.4,17.3,15.4,17.3,15.4,17.3z M10.9,16.5
	l0.7,2.8l1.6-1.1l-2-1.4C11.1,16.6,11,16.6,10.9,16.5z M5.7,11.6l4,1.6c0.3,0.1,0.5,0.4,0.6,0.7l0.5,2c0-0.2,0.1-0.4,0.3-0.6l10-9.9
	L5.7,11.6z"/>
</svg>
