<?xml version="1.0" encoding="utf-8"?>
<!-- Generator: Adobe Illustrator 24.1.0, SVG Export Plug-In . SVG Version: 6.00 Build 0)  -->
<svg version="1.1" id="Слой_1" xmlns="http://www.w3.org/2000/svg" xmlns:xlink="http://www.w3.org/1999/xlink" x="0px" y="0px"
	 viewBox="0 0 30 26.4" style="enable-background:new 0 0 30 26.4;" xml:space="preserve">
<style type="text/css">
	.st0{fill-rule:evenodd;clip-rule:evenodd;fill:#FFFFFF;}
</style>
<path id="Forma_1_1_" class="st0" d="M25.1,12.3c-0.1,5.8-4.8,10.5-10.7,10.4c-1.7,0-3.4-0.5-5-1.3l-5.8,1.9l1.9-5.6
	c-1-1.6-1.5-3.5-1.5-5.4C4.1,6.5,8.9,1.8,14.7,1.9C20.4,2,25,6.6,25.1,12.3z M14.6,3.5c-4.9,0-8.8,3.9-8.8,8.8
	c0,1.9,0.6,3.7,1.7,5.2l-1.1,3.3l3.4-1.1c4,2.7,9.5,1.6,12.2-2.4S23.6,7.7,19.5,5C18.1,4,16.3,3.5,14.6,3.5z M19.9,14.7
	c-0.1-0.1-0.3-0.2-0.5-0.3c-0.3-0.1-1.5-0.7-1.8-0.8c-0.2-0.1-0.4-0.1-0.6,0.1c0,0,0,0,0,0c-0.2,0.3-0.7,0.8-0.8,1
	c-0.1,0.2-0.4,0.2-0.6,0.1c-0.8-0.3-1.5-0.7-2.1-1.3c-0.6-0.5-1-1.1-1.4-1.8c-0.1-0.2-0.1-0.4,0.1-0.5c0,0,0,0,0,0
	c0.1-0.1,0.3-0.3,0.4-0.4c0.1-0.1,0.2-0.3,0.3-0.4c0.1-0.1,0.1-0.3,0-0.4c-0.1-0.1-0.6-1.4-0.8-1.9c-0.2-0.5-0.4-0.4-0.6-0.4
	s-0.3,0-0.5,0c-0.3,0-0.5,0.1-0.7,0.3C9.8,8.4,9.4,9.2,9.4,10c0.1,1,0.4,1.9,1.1,2.6c0.1,0.2,1.8,2.8,4.4,3.9s2.6,0.7,3.1,0.6
	c0.7-0.1,1.4-0.6,1.7-1.2C19.9,15.5,20,15.1,19.9,14.7L19.9,14.7z"/>
</svg>
