<svg width="15" height="16" viewBox="0 0 15 16" fill="none" xmlns="http://www.w3.org/2000/svg">
                <path d="M14.5722 11.0995L11.2909 9.69326C11.1508 9.63352 10.995 9.62093 10.847 9.65739C10.6991 9.69385 10.567 9.77738 10.4706 9.89541L9.01745 11.6708C6.73686 10.5956 4.90151 8.76021 3.82624 6.47963L5.60166 5.02647C5.71993 4.93028 5.80364 4.79818 5.84011 4.65016C5.87659 4.50215 5.86385 4.34628 5.80382 4.20615L4.39754 0.92484C4.33165 0.773785 4.21513 0.650453 4.06805 0.576112C3.92097 0.501771 3.75256 0.48108 3.59186 0.517606L0.544932 1.22074C0.389998 1.25652 0.251766 1.34376 0.152796 1.46821C0.0538267 1.59267 -3.56904e-05 1.747 1.77431e-08 1.90601C1.77431e-08 9.42079 6.09093 15.5 13.594 15.5C13.7531 15.5001 13.9075 15.4463 14.032 15.3473C14.1565 15.2483 14.2438 15.1101 14.2796 14.9551L14.9827 11.9081C15.019 11.7467 14.9979 11.5776 14.9229 11.43C14.848 11.2824 14.724 11.1656 14.5722 11.0995Z" fill="#3B5999"></path>
              </svg>