<svg width="19" height="19" viewBox="0 0 19 19" fill="none" xmlns="http://www.w3.org/2000/svg">
                  <path d="M9.49758 6.49872C7.84496 6.49872 6.4963 7.84738 6.4963 9.5C6.4963 11.1526 7.84496 12.5013 9.49758 12.5013C11.1502 12.5013 12.4989 11.1526 12.4989 9.5C12.4989 7.84738 11.1502 6.49872 9.49758 6.49872ZM18.4992 9.5C18.4992 8.25716 18.5104 7.02558 18.4406 5.78499C18.3708 4.34402 18.0421 3.06515 16.9884 2.01144C15.9324 0.955477 14.6558 0.629006 13.2148 0.559209C11.972 0.489412 10.7404 0.50067 9.49983 0.50067C8.25699 0.50067 7.02541 0.489412 5.78482 0.559209C4.34385 0.629006 3.06498 0.957728 2.01127 2.01144C0.955309 3.0674 0.628839 4.34402 0.559041 5.78499C0.489244 7.02783 0.500502 8.25941 0.500502 9.5C0.500502 10.7406 0.489244 11.9744 0.559041 13.215C0.628839 14.656 0.957561 15.9348 2.01127 16.9886C3.06724 18.0445 4.34385 18.371 5.78482 18.4408C7.02766 18.5106 8.25924 18.4993 9.49983 18.4993C10.7427 18.4993 11.9743 18.5106 13.2148 18.4408C14.6558 18.371 15.9347 18.0423 16.9884 16.9886C18.0444 15.9326 18.3708 14.656 18.4406 13.215C18.5127 11.9744 18.4992 10.7428 18.4992 9.5ZM9.49758 14.1179C6.9421 14.1179 4.87971 12.0555 4.87971 9.5C4.87971 6.94452 6.9421 4.88213 9.49758 4.88213C12.0531 4.88213 14.1154 6.94452 14.1154 9.5C14.1154 12.0555 12.0531 14.1179 9.49758 14.1179ZM14.3046 5.77148C13.7079 5.77148 13.2261 5.28966 13.2261 4.693C13.2261 4.09635 13.7079 3.61452 14.3046 3.61452C14.9012 3.61452 15.3831 4.09635 15.3831 4.693C15.3832 4.83468 15.3555 4.975 15.3013 5.10593C15.2472 5.23686 15.1678 5.35582 15.0676 5.456C14.9674 5.55618 14.8484 5.63561 14.7175 5.68975C14.5866 5.74389 14.4463 5.77166 14.3046 5.77148Z" fill="white"></path>
                </svg>