<svg width="15" xmlns="http://www.w3.org/2000/svg" viewBox="0 0 708.46 833.49" fill="grey">
            <path d="m360.48,0c159.47-.27,305.91,117.19,339.53,279.38,23.84,115.04-2.82,218.51-79.57,307.39-56.18,65.05-114.96,127.85-172.74,191.52-8.72,9.61-18.15,18.61-27.45,27.69-37.24,36.38-95.84,37.06-132.15-.23-40.79-41.89-80.36-84.98-119.86-128.1-29.48-32.19-58.72-64.65-86.79-98.07C37.67,527.42,11.7,467.07,2.94,399.45-16.05,252.88,58.24,110.01,189.34,40.89,240.83,13.74,295.76.37,360.48,0ZM61.81,354.53c1.06,12.6,1.63,25.27,3.27,37.8,7.56,57.9,30.7,108.97,69.07,152.86,31.69,36.25,63.77,72.17,96.27,107.69,33.28,36.39,67.07,72.31,101.05,108.05,13.37,14.06,31.26,13.69,45.27.22,5.88-5.66,11.81-11.3,17.29-17.34,59.5-65.46,119.77-130.25,178.12-196.73,64.27-73.22,86.76-158.99,66.87-254.35-32.55-156.1-187.61-260.3-351.38-222.44C154.76,101.02,62.27,218.67,61.81,354.53Z"></path>
            <path d="m353.93,479.18c-72.23-.18-124.93-53.07-124.8-125.25.13-71.99,53.48-124.99,125.44-124.61,72.35.39,124.79,53.22,124.55,125.49-.24,71.81-53.32,124.55-125.18,124.37Zm62.69-124.2c-.17-2.99-.27-5.99-.53-8.98-2.23-25.17-18.74-46.21-41.74-51.69-8.46-2.02-17.51-2.59-26.23-2.27-25.54.95-44.04,14.89-52.44,38.44-3.76,10.56-4.61,21.43-3.51,32.51,2.48,25.02,18.87,45.77,41.72,51.18,8.62,2.04,17.84,2.6,26.72,2.24,20.29-.82,36.47-9.62,46.92-27.54,6.09-10.43,8.91-21.81,9.09-33.89Z"></path>
          </svg>