<svg width="21" height="20" viewBox="0 0 21 20" fill="none" xmlns="http://www.w3.org/2000/svg">
<path d="M19.6667 12C19.0667 12 18.6667 12.4 18.6667 13V17C18.6667 17.6 18.2667 18 17.6667 18H3.66675C3.06675 18 2.66675 17.6 2.66675 17V13C2.66675 12.4 2.26675 12 1.66675 12C1.06675 12 0.666748 12.4 0.666748 13V17C0.666748 18.7 1.96675 20 3.66675 20H17.6667C19.3667 20 20.6667 18.7 20.6667 17V13C20.6667 12.4 20.2667 12 19.6667 12Z" fill="#FEC96A"/>
<path d="M9.96675 13.7C10.0667 13.8 10.1667 13.9 10.2667 13.9C10.3667 14 10.5667 14 10.6667 14C10.7667 14 10.9667 14 11.0667 13.9C11.1667 13.8 11.2667 13.8 11.3667 13.7L16.3667 8.7C16.7667 8.3 16.7667 7.7 16.3667 7.3C15.9667 6.9 15.3667 6.9 14.9667 7.3L11.6667 10.6V1C11.6667 0.4 11.2667 0 10.6667 0C10.0667 0 9.66675 0.4 9.66675 1V10.6L6.36675 7.3C5.96675 6.9 5.36675 6.9 4.96675 7.3C4.56675 7.7 4.56675 8.3 4.96675 8.7L9.96675 13.7Z" fill="#FEC96A"/>
</svg>
